HIERARCHY
ROOT hips
{
	OFFSET 0.000000 104.274902 0.000000
	CHANNELS 6 Xposition Yposition Zposition Xrotation Yrotation Zrotation
	JOINT spine
	{
		OFFSET 0.000000 10.181549 0.131524
		CHANNELS 6 Xposition Yposition Zposition Xrotation Yrotation Zrotation
		JOINT chest
		{
			OFFSET 0.000000 9.893990 -1.470706
			CHANNELS 3 Xrotation Yrotation Zrotation
			JOINT upperChest
			{
				OFFSET 0.000000 9.220787 -1.370637
				CHANNELS 3 Xrotation Yrotation Zrotation
				JOINT neck
				{
					OFFSET 0.000000 16.740372 -2.049022
					CHANNELS 6 Xposition Yposition Zposition Xrotation Yrotation Zrotation
					JOINT head
					{
						OFFSET 0.000000 9.617859 1.684976
						CHANNELS 6 Xposition Yposition Zposition Xrotation Yrotation Zrotation
						JOINT headEnd
						{
							OFFSET 0.000000 22.037384 7.501072
							CHANNELS 6 Xposition Yposition Zposition Xrotation Yrotation Zrotation
							End Site
							{
								OFFSET 0.000000 23.106567 -2.828246
							}
						}
					}
				}
				JOINT rightShoulder
				{
					OFFSET -4.570000 11.014877 -2.160840
					CHANNELS 6 Xposition Yposition Zposition Xrotation Yrotation Zrotation
					JOINT rightUpperArm
					{
						OFFSET -10.592867 -0.524796 -2.232105
						CHANNELS 3 Xrotation Yrotation Zrotation
						JOINT rightLowerArm
						{
							OFFSET -27.841497 0.000000 -0.000002
							CHANNELS 3 Xrotation Yrotation Zrotation
							JOINT rightHand
							{
								OFFSET -28.328812 0.000000 -0.000001
								CHANNELS 3 Xrotation Yrotation Zrotation
								JOINT rightThumbProximal
								{
									OFFSET -2.464798 -1.573990 2.681911
									CHANNELS 6 Xposition Yposition Zposition Xrotation Yrotation Zrotation
									JOINT rightThumbIntermediate
									{
										OFFSET -3.244781 -1.873383 1.873376
										CHANNELS 3 Xrotation Yrotation Zrotation
										JOINT rightThumbDistal
										{
											OFFSET -2.646263 -1.527817 1.527818
											CHANNELS 6 Xposition Yposition Zposition Xrotation Yrotation Zrotation
											JOINT rightHandThumb4
											{
												OFFSET -1.994591 -1.151581 1.151575
												CHANNELS 6 Xposition Yposition Zposition Xrotation Yrotation Zrotation
												End Site
												{
													OFFSET -1.860176 -1.142715 1.365483
												}
											}
										}
									}
								}
								JOINT rightIndexProximal
								{
									OFFSET -9.108299 -0.517883 2.259803
									CHANNELS 6 Xposition Yposition Zposition Xrotation Yrotation Zrotation
									JOINT rightIndexIntermediate
									{
										OFFSET -3.699997 0.000000 0.000000
										CHANNELS 3 Xrotation Yrotation Zrotation
										JOINT rightIndexDistal
										{
											OFFSET -2.850006 0.000000 0.000000
											CHANNELS 3 Xrotation Yrotation Zrotation
											JOINT rightHandIndex4
											{
												OFFSET -2.772194 0.000000 0.000000
												CHANNELS 3 Xrotation Yrotation Zrotation
												End Site
												{
													OFFSET -2.772202 0.000000 -0.000484
												}
											}
										}
									}
								}
								JOINT rightMiddleProximal
								{
									OFFSET -9.532501 0.000000 -0.000000
									CHANNELS 6 Xposition Yposition Zposition Xrotation Yrotation Zrotation
									JOINT rightMiddleIntermediate
									{
										OFFSET -3.699997 0.000000 0.000000
										CHANNELS 3 Xrotation Yrotation Zrotation
										JOINT rightMiddleDistal
										{
											OFFSET -2.949997 0.000000 0.000000
											CHANNELS 3 Xrotation Yrotation Zrotation
											JOINT rightHandMiddle4
											{
												OFFSET -2.946594 0.000000 0.000000
												CHANNELS 3 Xrotation Yrotation Zrotation
												End Site
												{
													OFFSET -2.946602 0.000000 -0.000982
												}
											}
										}
									}
								}
								JOINT rightRingProximal
								{
									OFFSET -9.103600 -0.043106 -1.865100
									CHANNELS 6 Xposition Yposition Zposition Xrotation Yrotation Zrotation
									JOINT rightRingIntermediate
									{
										OFFSET -3.379303 0.000000 0.000000
										CHANNELS 3 Xrotation Yrotation Zrotation
										JOINT rightRingDistal
										{
											OFFSET -2.889694 0.000000 0.000000
											CHANNELS 3 Xrotation Yrotation Zrotation
											JOINT rightHandRing4
											{
												OFFSET -2.638802 0.000000 0.000000
												CHANNELS 3 Xrotation Yrotation Zrotation
												End Site
												{
													OFFSET -2.638802 0.000000 0.004218
												}
											}
										}
									}
								}
								JOINT rightLittleProximal
								{
									OFFSET -8.076698 -0.486725 -3.806299
									CHANNELS 6 Xposition Yposition Zposition Xrotation Yrotation Zrotation
									JOINT rightLittleIntermediate
									{
										OFFSET -3.600006 0.000000 0.000000
										CHANNELS 3 Xrotation Yrotation Zrotation
										JOINT rightLittleDistal
										{
											OFFSET -2.099998 0.000000 0.000000
											CHANNELS 3 Xrotation Yrotation Zrotation
											JOINT rightHandPinky4
											{
												OFFSET -2.115791 0.000000 0.000000
												CHANNELS 3 Xrotation Yrotation Zrotation
												End Site
												{
													OFFSET -2.115799 0.000000 0.000174
												}
											}
										}
									}
								}
							}
						}
					}
				}
				JOINT leftShoulder
				{
					OFFSET 4.570400 11.014679 -2.160816
					CHANNELS 6 Xposition Yposition Zposition Xrotation Yrotation Zrotation
					JOINT leftUpperArm
					{
						OFFSET 10.592373 -0.524597 -2.232116
						CHANNELS 3 Xrotation Yrotation Zrotation
						JOINT leftLowerArm
						{
							OFFSET 27.841488 0.000000 0.000001
							CHANNELS 3 Xrotation Yrotation Zrotation
							JOINT leftHand
							{
								OFFSET 28.328808 0.000000 -0.000000
								CHANNELS 3 Xrotation Yrotation Zrotation
								JOINT leftThumbProximal
								{
									OFFSET 2.466103 -1.576202 2.681698
									CHANNELS 6 Xposition Yposition Zposition Xrotation Yrotation Zrotation
									JOINT leftThumbIntermediate
									{
										OFFSET 3.243317 -1.872528 1.872530
										CHANNELS 3 Xrotation Yrotation Zrotation
										JOINT leftThumbDistal
										{
											OFFSET 2.647881 -1.528763 1.528754
											CHANNELS 6 Xposition Yposition Zposition Xrotation Yrotation Zrotation
											JOINT leftHandThumb4
											{
												OFFSET 1.998924 -1.154083 1.154080
												CHANNELS 6 Xposition Yposition Zposition Xrotation Yrotation Zrotation
												End Site
												{
													OFFSET 1.884041 -1.149155 1.337651
												}
											}
										}
									}
								}
								JOINT leftIndexProximal
								{
									OFFSET 9.109299 -0.518005 2.259900
									CHANNELS 6 Xposition Yposition Zposition Xrotation Yrotation Zrotation
									JOINT leftIndexIntermediate
									{
										OFFSET 3.699997 0.000000 0.000000
										CHANNELS 3 Xrotation Yrotation Zrotation
										JOINT leftIndexDistal
										{
											OFFSET 2.850006 0.000000 0.000000
											CHANNELS 3 Xrotation Yrotation Zrotation
											JOINT leftHandIndex4
											{
												OFFSET 2.774895 0.000000 0.000000
												CHANNELS 3 Xrotation Yrotation Zrotation
												End Site
												{
													OFFSET 2.774902 0.000000 -0.000072
												}
											}
										}
									}
								}
								JOINT leftMiddleProximal
								{
									OFFSET 9.533401 0.000000 0.000000
									CHANNELS 6 Xposition Yposition Zposition Xrotation Yrotation Zrotation
									JOINT leftMiddleIntermediate
									{
										OFFSET 3.699997 0.000000 0.000000
										CHANNELS 3 Xrotation Yrotation Zrotation
										JOINT leftMiddleDistal
										{
											OFFSET 2.949997 0.000000 0.000000
											CHANNELS 3 Xrotation Yrotation Zrotation
											JOINT leftHandMiddle4
											{
												OFFSET 2.952896 0.000000 0.000000
												CHANNELS 3 Xrotation Yrotation Zrotation
												End Site
												{
													OFFSET 2.952904 0.000000 0.000165
												}
											}
										}
									}
								}
								JOINT leftRingProximal
								{
									OFFSET 9.104500 -0.042999 -1.865101
									CHANNELS 6 Xposition Yposition Zposition Xrotation Yrotation Zrotation
									JOINT leftRingIntermediate
									{
										OFFSET 3.149994 0.000000 0.000000
										CHANNELS 3 Xrotation Yrotation Zrotation
										JOINT leftRingDistal
										{
											OFFSET 2.950005 0.000000 0.000000
											CHANNELS 3 Xrotation Yrotation Zrotation
											JOINT leftHandRing4
											{
												OFFSET 2.644302 0.000000 0.000000
												CHANNELS 3 Xrotation Yrotation Zrotation
												End Site
												{
													OFFSET 2.644302 0.000000 0.000083
												}
											}
										}
									}
								}
								JOINT leftLittleProximal
								{
									OFFSET 8.077805 -0.486893 -3.806302
									CHANNELS 6 Xposition Yposition Zposition Xrotation Yrotation Zrotation
									JOINT leftLittleIntermediate
									{
										OFFSET 3.600006 0.000000 0.000000
										CHANNELS 3 Xrotation Yrotation Zrotation
										JOINT leftLittleDistal
										{
											OFFSET 2.099998 0.000000 0.000000
											CHANNELS 3 Xrotation Yrotation Zrotation
											JOINT leftHandPinky4
											{
												OFFSET 2.125496 0.000000 0.000000
												CHANNELS 3 Xrotation Yrotation Zrotation
												End Site
												{
													OFFSET 2.125504 0.000000 -0.001254
												}
											}
										}
									}
								}
							}
						}
					}
				}
			}
		}
	}
	JOINT rightUpperLeg
	{
		OFFSET -8.207800 -6.751701 -1.599544
		CHANNELS 6 Xposition Yposition Zposition Xrotation Yrotation Zrotation
		JOINT rightLowerLeg
		{
			OFFSET 0.000004 -44.370152 0.345934
			CHANNELS 3 Xrotation Yrotation Zrotation
			JOINT rightFoot
			{
				OFFSET 0.000004 -44.423664 -3.043535
				CHANNELS 3 Xrotation Yrotation Zrotation
				JOINT rightToes
				{
					OFFSET 0.000001 -8.728691 10.710592
					CHANNELS 3 Xrotation Yrotation Zrotation
					JOINT rightToesEnd
					{
						OFFSET 0.000000 -0.000665 9.278101
						CHANNELS 3 Xrotation Yrotation Zrotation
						End Site
						{
							OFFSET 0.000000 -0.000665 9.278103
						}
					}
				}
			}
		}
	}
	JOINT leftUpperLeg
	{
		OFFSET 8.207800 -6.751701 -1.599544
		CHANNELS 6 Xposition Yposition Zposition Xrotation Yrotation Zrotation
		JOINT leftLowerLeg
		{
			OFFSET 0.000004 -44.370037 0.346940
			CHANNELS 3 Xrotation Yrotation Zrotation
			JOINT leftFoot
			{
				OFFSET 0.000004 -44.423611 -3.044388
				CHANNELS 3 Xrotation Yrotation Zrotation
				JOINT leftToes
				{
					OFFSET 0.000001 -8.728690 10.710592
					CHANNELS 3 Xrotation Yrotation Zrotation
					JOINT leftToesEnd
					{
						OFFSET 0.000000 -0.000680 9.278101
						CHANNELS 3 Xrotation Yrotation Zrotation
						End Site
						{
							OFFSET 0.000000 -0.000680 9.278101
						}
					}
				}
			}
		}
	}
}
MOTION
Frames: 4
Frame Time: 0.033333
-0.045171 104.878975 0.006793 -1.126990 5.127232 -0.249790 -0.000000 10.181557 0.131524 4.161593 -0.662754 -6.386031 -3.669565 -0.147482 3.724836 -3.652461 -0.183555 3.736617 -0.000000 16.740345 -2.049017 6.411089 -2.853664 -1.324905 0.000000 9.617842 1.684978 4.940512 -2.695609 0.676355 -0.000000 22.037354 7.501072 -0.000000 -0.000000 0.000000 -4.570001 11.014848 -2.160835 0.547548 0.252864 8.210535 -2.840560 0.971281 67.700541 22.458384 17.065878 -6.961610 0.036874 -5.224958 1.034683 -2.464793 -1.573987 2.681909 15.578121 -0.726455 -16.763229 -6.586434 -24.373318 7.033396 -2.646257 -1.527788 1.527816 -11.550804 5.745642 5.164537 -1.994606 -1.151572 1.151572 0.000003 -0.000007 0.000003 -9.108294 -0.517871 2.259802 2.247949 -2.298820 4.747586 -2.147150 -2.454133 14.947994 -1.892729 -4.853544 10.730072 -0.000001 0.000000 -0.000000 -9.532496 0.000016 0.000002 -1.992217 -5.682326 8.742436 0.270220 -5.094746 22.099832 -0.653210 -1.139775 6.820007 -0.000001 -0.000000 -0.000000 -9.103595 -0.043107 -1.865098 -4.984344 -10.118314 7.760565 4.018638 -4.046371 30.252154 2.103036 -3.154440 12.586384 0.000002 -0.000001 -0.000002 -8.076689 -0.486726 -3.806299 -6.470291 -11.329793 16.980323 10.714881 -2.554536 28.536754 6.430041 -3.074585 8.993782 -0.000001 0.000000 0.000002 4.570400 11.014667 -2.160811 0.562995 -4.351480 -5.516732 1.511006 7.647462 -68.158492 20.147856 -10.905525 0.248844 -0.143396 0.803440 5.025703 2.466099 -1.576223 2.681697 10.557818 -2.873282 25.085750 -5.466260 26.113096 -7.056483 2.647893 -1.528747 1.528753 -6.642505 3.830208 -2.616336 1.998925 -1.154094 1.154082 0.000001 0.000002 -0.000004 9.109286 -0.518040 2.259898 2.382672 3.631818 -10.146174 -2.139921 2.444246 -20.341009 -1.874986 4.848961 -16.122998 0.000001 -0.000000 -0.000001 9.533382 0.000004 -0.000002 -1.979495 5.671839 -18.668107 0.265283 5.071024 -32.022874 -0.654069 1.123411 -16.743550 -0.000001 -0.000000 0.000002 9.104486 -0.043007 -1.865105 -4.974223 10.113972 -16.315514 4.013368 4.057132 -38.804128 2.100408 3.141637 -21.138568 -0.000000 0.000000 -0.000001 8.077800 -0.486895 -3.806304 -6.466576 11.338305 -26.083599 8.739355 2.610237 -31.923406 5.266222 2.636529 -14.783832 0.000001 0.000001 0.000001 -8.207797 -6.751698 -1.599543 -6.462855 -5.407069 10.668053 21.547765 -0.563232 -0.045194 18.725290 -0.942951 -8.273430 -30.272863 1.867639 -3.335004 -0.000000 0.000000 0.000000 8.207800 -6.751688 -1.599548 -37.824191 -15.521188 -3.480618 76.156186 -4.067639 -0.325365 13.302376 0.260193 4.086074 -20.892352 9.064438 -7.160507 -0.000002 0.000000 -0.000000 
0.800227 105.698425 2.740622 -1.169187 1.511614 2.015678 -0.000001 10.181549 0.131523 4.268058 0.349124 -6.543369 -3.644742 1.043719 2.824676 -3.692020 0.969353 2.779525 -0.000001 16.740379 -2.049024 6.807823 -2.111379 -2.926799 -0.000000 9.617852 1.684977 4.651386 -2.498021 1.597869 -0.000000 22.037384 7.501076 -0.000000 -0.000000 0.000000 -4.570001 11.014861 -2.160843 0.542171 2.075379 5.823366 -4.499756 0.583990 70.313895 23.954870 19.389990 -8.339263 0.026505 -4.979321 0.895402 -2.464790 -1.574009 2.681912 15.573940 -0.714472 -16.763986 -6.588789 -24.363935 7.037093 -2.646276 -1.527799 1.527819 -11.554889 5.754263 5.168436 -1.994603 -1.151578 1.151574 0.000002 -0.000006 0.000005 -9.108299 -0.517872 2.259805 2.247952 -2.298822 4.747586 -2.140597 -2.459111 14.592028 -1.884604 -4.856570 10.374654 -0.000003 0.000002 0.000001 -9.532498 0.000016 0.000004 -1.992216 -5.682328 8.742434 0.279014 -5.098622 22.057058 -0.647856 -1.145257 6.776573 -0.000001 0.000001 0.000001 -9.103599 -0.043107 -1.865098 -4.984344 -10.118317 7.760565 4.028190 -4.049178 30.209182 2.108844 -3.159342 12.543116 0.000001 -0.000000 0.000002 -8.076681 -0.486722 -3.806295 -6.470291 -11.329798 16.980320 10.724288 -2.557579 28.493360 6.435359 -3.079861 8.950282 0.000003 0.000002 0.000002 4.570401 11.014688 -2.160817 0.519839 -3.021351 -6.617501 3.016941 8.946502 -67.273976 21.198873 -10.483748 0.549630 -0.120519 1.047415 3.637406 2.466084 -1.576196 2.681697 10.549589 -2.598588 25.148476 -5.480713 26.086024 -7.055190 2.647875 -1.528737 1.528751 -6.653114 3.803192 -2.625859 1.998920 -1.154093 1.154076 0.000000 0.000000 0.000005 9.109293 -0.518019 2.259899 2.382367 3.635203 -10.313349 -2.139679 2.447590 -20.507996 -1.873564 4.849971 -16.290179 -0.000001 0.000001 0.000003 9.533398 0.000027 -0.000001 -1.979952 5.670814 -18.604228 0.265500 5.072767 -32.437941 -0.653429 1.125491 -17.158511 -0.000001 -0.000003 0.000000 9.104498 -0.042978 -1.865104 -4.974019 10.112787 -16.260012 4.013219 4.054176 -39.227303 2.102844 3.143566 -21.561941 0.000001 0.000001 0.000000 8.077803 -0.486880 -3.806304 -6.467963 11.337779 -26.034528 8.741475 2.626929 -32.353472 5.265757 2.643821 -15.213487 0.000001 0.000001 -0.000001 -8.207798 -6.751706 -1.599543 -3.020403 -4.382167 7.535516 18.362847 2.492190 0.200270 18.832245 -1.008289 -8.500199 -30.470778 1.556943 -2.954100 0.000000 -0.000000 0.000000 8.207800 -6.751694 -1.599541 -38.838880 -12.927133 -5.906130 67.706887 1.871268 0.150400 16.281901 0.050646 1.272539 -21.087970 9.267175 -7.033638 0.000002 0.000000 0.000000 
1.739517 106.393768 5.460863 -0.346571 -2.614100 3.526693 -0.000001 10.181546 0.131523 3.667778 1.678877 -4.699471 -3.447482 2.324794 1.353360 -3.511616 2.239454 1.257650 -0.000001 16.740351 -2.049022 6.316958 -1.117250 -4.712639 0.000002 9.617828 1.684974 5.184778 -2.126447 2.546137 0.000001 22.037369 7.501073 0.000000 0.000000 -0.000000 -4.569999 11.014864 -2.160841 0.603598 4.275727 4.010866 -5.978295 1.977334 71.901873 20.348404 22.120032 -7.937549 4.292191 -4.865144 1.644600 -2.464791 -1.573996 2.681915 15.567174 -0.681440 -16.755011 -6.602833 -24.337981 7.036411 -2.646269 -1.527815 1.527819 -11.567902 5.779459 5.177877 -1.994590 -1.151585 1.151575 0.000001 -0.000005 -0.000000 -9.108310 -0.517876 2.259809 2.247949 -2.298818 4.747586 -2.115866 -2.478591 13.649317 -1.862058 -4.871118 9.433027 0.000002 0.000001 0.000000 -9.532498 0.000015 0.000005 -1.992217 -5.682328 8.742433 0.304944 -5.114726 21.931825 -0.627175 -1.167576 6.649403 -0.000000 0.000002 0.000001 -9.103597 -0.043095 -1.865095 -4.984345 -10.118317 7.760564 4.056151 -4.061453 30.083596 2.131703 -3.179439 12.416752 -0.000001 0.000001 -0.000000 -8.076696 -0.486722 -3.806290 -6.470292 -11.329793 16.980322 10.751813 -2.570728 28.366985 6.456954 -3.101384 8.823892 0.000002 0.000000 -0.000001 4.570400 11.014696 -2.160816 0.504445 -0.971999 -8.351965 3.792716 10.165517 -65.661129 22.877341 -9.865949 0.962823 -0.085678 2.006072 1.623339 2.466074 -1.576214 2.681700 10.526115 -1.865384 25.316146 -5.521372 26.018477 -7.052872 2.647892 -1.528726 1.528747 -6.684986 3.733512 -2.640717 1.998917 -1.154063 1.154073 0.000001 -0.000002 -0.000000 9.109273 -0.518020 2.259900 2.381151 3.639372 -10.765223 -2.139309 2.451457 -20.959689 -1.873726 4.852068 -16.742071 -0.000000 0.000002 0.000003 9.533386 -0.000005 -0.000001 -1.981068 5.668159 -18.439796 0.266000 5.076953 -33.547410 -0.650904 1.125876 -18.267997 -0.000001 -0.000001 0.000005 9.104478 -0.042994 -1.865104 -4.973429 10.109722 -16.117020 4.012718 4.054553 -40.357829 2.109334 3.143547 -22.692807 -0.000001 -0.000000 -0.000002 8.077792 -0.486894 -3.806303 -6.471506 11.336424 -25.908023 8.743385 2.666976 -33.500719 5.257273 2.662770 -16.360376 -0.000001 -0.000001 -0.000000 -8.207800 -6.751711 -1.599545 -0.074398 -5.104515 4.544290 14.571107 7.688052 0.603805 19.101626 -1.121754 -8.977450 -29.986170 1.228265 -2.395083 -0.000000 0.000000 -0.000000 8.207800 -6.751689 -1.599540 -37.757286 -9.254335 -6.618877 55.219815 4.676305 0.375922 20.082132 -0.256362 -1.004561 -21.224709 9.726087 -6.182970 -0.000000 0.000000 0.000000 
2.476122 106.633728 8.354071 0.076465 -6.079140 4.046816 -0.000002 10.181553 0.131523 4.051657 2.828395 -1.975660 -3.467858 3.291453 -0.017408 -3.470167 3.207648 -0.162945 0.000002 16.740368 -2.049022 5.555932 -0.242820 -6.488542 0.000000 9.617826 1.684972 5.706790 -1.873985 3.361910 -0.000000 22.037384 7.501073 -0.000000 -0.000000 -0.000000 -4.569999 11.014853 -2.160842 0.727181 5.806500 2.907181 -6.893917 6.060134 72.257466 19.676759 24.423660 -8.410336 3.638916 -4.303265 1.203425 -2.464772 -1.573995 2.681911 15.556239 -0.627891 -16.740469 -6.627275 -24.296964 7.035916 -2.646265 -1.527795 1.527815 -11.590341 5.820280 5.190753 -1.994601 -1.151583 1.151568 -0.000003 0.000000 0.000001 -9.108276 -0.517875 2.259806 2.247954 -2.298815 4.747583 -2.079947 -2.511755 12.307565 -1.828259 -4.906763 8.092591 0.000004 -0.000000 0.000000 -9.532476 0.000013 0.000008 -1.992210 -5.682323 8.742431 0.346831 -5.141054 21.728813 -0.593884 -1.203906 6.443353 0.000003 0.000000 0.000000 -9.103579 -0.043110 -1.865094 -4.984336 -10.118313 7.760563 4.101353 -4.081612 29.880008 2.168605 -3.212215 12.212072 -0.000002 0.000002 -0.000000 -8.076667 -0.486725 -3.806292 -6.470287 -11.329793 16.980322 10.796307 -2.592184 28.162321 6.491653 -3.136459 8.619019 0.000002 -0.000001 0.000002 4.570401 11.014688 -2.160817 0.535892 1.628126 -10.553332 4.149098 11.294982 -63.550143 22.201696 -9.336970 0.680006 -0.132671 2.607273 2.637938 2.466081 -1.576197 2.681698 10.488628 -0.810222 25.557897 -5.580277 25.928651 -7.051102 2.647880 -1.528727 1.528751 -6.729106 3.638901 -2.661077 1.998909 -1.154075 1.154074 0.000000 0.000003 0.000003 9.109293 -0.518008 2.259900 2.378886 3.639887 -11.427400 -2.138879 2.451378 -21.621975 -1.873922 4.854942 -17.404234 -0.000001 -0.000001 0.000004 9.533390 0.000015 0.000001 -1.982601 5.666330 -18.215857 0.266686 5.081926 -35.147655 -0.646554 1.126492 -19.868375 -0.000002 0.000001 -0.000004 9.104486 -0.042998 -1.865101 -4.972604 10.105511 -15.922399 4.012699 4.055088 -41.986880 2.109395 3.144166 -24.321839 -0.000001 0.000001 0.000003 8.077806 -0.486898 -3.806301 -6.476335 11.334537 -25.735823 8.747612 2.724602 -35.152535 5.245768 2.693627 -18.011801 0.000001 0.000001 -0.000001 -8.207800 -6.751708 -1.599545 3.197748 -6.286515 2.754922 10.938914 13.873928 1.129333 19.183667 -2.661968 -9.210465 -29.765992 0.805768 -1.615370 0.000000 0.000000 0.000000 8.207799 -6.751699 -1.599544 -34.069895 -5.037812 -6.083042 40.309451 3.313864 0.266525 24.048107 -0.679820 -2.967145 -21.304487 10.398246 -4.742028 0.000000 -0.000000 0.000000 
